<?xml version="1.0" encoding="UTF-8" standalone="no"?>
<svg
   xmlns:dc="http://purl.org/dc/elements/1.1/"
   xmlns:cc="http://creativecommons.org/ns#"
   xmlns:rdf="http://www.w3.org/1999/02/22-rdf-syntax-ns#"
   xmlns:svg="http://www.w3.org/2000/svg"
   xmlns="http://www.w3.org/2000/svg"
   xmlns:sodipodi="http://sodipodi.sourceforge.net/DTD/sodipodi-0.dtd"
   xmlns:inkscape="http://www.inkscape.org/namespaces/inkscape"
   inkscape:output_extension="org.inkscape.output.svg.inkscape"
   sodipodi:docname="Gran_Turismo_4_Logo.svg"
   inkscape:version="1.0 (4035a4fb49, 2020-05-01)"
   sodipodi:version="0.32"
   xml:space="preserve"
   enable-background="new 0 0 192.756 192.755"
   viewBox="0 0 192.756 192.755"
   height="115"
   width="200"
   y="0px"
   x="0px"
   id="Ebene_1"
   version="1.0"><metadata
   id="metadata24"><rdf:RDF><cc:Work
       rdf:about=""><dc:format>image/svg+xml</dc:format><dc:type
         rdf:resource="http://purl.org/dc/dcmitype/StillImage" /></cc:Work></rdf:RDF></metadata><defs
   id="defs22"><inkscape:perspective
   id="perspective26"
   inkscape:persp3d-origin="96.377998 : 64.251668 : 1"
   inkscape:vp_z="192.756 : 96.377502 : 1"
   inkscape:vp_y="0 : 1000 : 0"
   inkscape:vp_x="0 : 96.377502 : 1"
   sodipodi:type="inkscape:persp3d" />
	
	
	
	
	
	
	
	
</defs><sodipodi:namedview
   inkscape:window-maximized="0"
   inkscape:document-rotation="0"
   inkscape:current-layer="Ebene_1"
   inkscape:window-y="0"
   inkscape:window-x="0"
   inkscape:cy="80.024458"
   inkscape:cx="96.377998"
   inkscape:zoom="2.3968249"
   showgrid="false"
   id="base"
   pagecolor="#ffffff"
   bordercolor="#666666"
   borderopacity="1.0"
   objecttolerance="10.0"
   gridtolerance="10.0"
   guidetolerance="10.0"
   inkscape:pageopacity="0.0"
   inkscape:pageshadow="2"
   inkscape:window-width="1280"
   inkscape:window-height="750" />
<path
   clip-rule="evenodd"
   d="m 53.827809,97.935941 c 3.245264,-10.403439 10.784689,-11.835447 16.129609,-11.835447 7.06333,0 14.413061,0 21.47639,0 -4.582423,14.887296 -9.164847,29.873156 -13.840257,44.764176 -11.262644,0 -22.525289,0 -33.88464,0 3.531665,-11.35749 6.587234,-21.47453 10.118898,-32.928729 z"
   id="path11"
   style="fill:#e00d23;fill-opacity:1;fill-rule:evenodd" /><path
   clip-rule="evenodd"
   d="m 104.41486,63.861607 c 5.91773,0 14.79431,0 20.7139,0 9.06814,0 10.97438,-2.577613 13.45529,-10.596853 2.48276,-7.922534 4.86882,-15.750221 7.35159,-23.765742 17.37006,0 34.74384,0 52.20875,0 -4.10447,13.267455 -8.11037,26.438202 -12.2167,39.610809 -16.41601,0 -32.83202,0 -49.24989,0 -6.29897,20.617185 -12.69651,41.139519 -18.99362,61.754849 -11.26637,0 -22.525293,0 -33.789797,0 6.871775,-22.33559 13.74541,-44.669328 20.520477,-67.003063 z"
   id="path13"
   style="fill:#e00d23;fill-opacity:1;fill-rule:evenodd" /><path
   clip-rule="evenodd"
   d="m 32.35142,164.46291 c -9.257834,0 -50.681899,-24.62681 -35.6011885,-73.400603 C 9.9228382,48.301082 55.257957,29.497152 91.052559,29.497152 c 6.775068,0 12.220421,0 18.898781,0 -2.76731,8.973293 -5.53648,17.942866 -8.30378,26.916158 -2.864021,9.927344 -10.976249,9.927344 -21.855785,9.927344 -17.180368,0 -56.698189,11.359351 -66.910075,44.479636 -6.6820803,21.85577 3.148556,35.79274 21.762791,46.29103 -0.766217,2.38606 -1.526854,4.87068 -2.293071,7.35159 z"
   id="path15"
   style="fill:#3c2f87;fill-opacity:1;fill-rule:evenodd" />
</svg>
